PathFileType	4	(X/Y/Z)	TVC_60_Cal_03_0_static_RCNL2025.trc
DataRate	CameraRate	NumFrames	NumMarkers	Units	OrigDataRate	OrigDataStartFrame	OrigNumFrames
100	100	10	27	mm	100	1	354
Frame#	Time	R_Shoulder			L_Shoulder			C7			J_Notch			R_Elbow			L_Elbow			R_Wrist			L_Wrist			R_Asis			L_Asis			R_Psis			L_Psis			Sacral			Thoracic			Sternum			R_Thigh_Lateral			R_Knee_Lateral			R_Shank_Lateral			R_Ankle_Lateral			R_Heel			R_Toe			L_Thigh_Lateral			L_Knee_Lateral			L_Shank_Lateral			L_Ankle_Lateral			L_Heel			L_Toe		
		X1	Y1	Z1	X2	Y2	Z2	X3	Y3	Z3	X4	Y4	Z4	X5	Y5	Z5	X6	Y6	Z6	X7	Y7	Z7	X8	Y8	Z8	X9	Y9	Z9	X10	Y10	Z10	X11	Y11	Z11	X12	Y12	Z12	X13	Y13	Z13	X14	Y14	Z14	X15	Y15	Z15	X16	Y16	Z16	X17	Y17	Z17	X18	Y18	Z18	X19	Y19	Z19	X20	Y20	Z20	X21	Y21	Z21	X22	Y22	Z22	X23	Y23	Z23	X24	Y24	Z24	X25	Y25	Z25	X26	Y26	Z26	X27	Y27	Z27
1	0.00000000	-249.688187	1349.041016	-45.833050	-252.514374	1361.363159	-390.212952	-278.012573	1422.866821	-224.763535	-190.936996	1280.170654	-221.057800	-324.414246	1014.696777	17.880716	-306.208710	1016.444885	-443.293701	-250.642433	792.487274	63.771622	-212.411575	802.860291	-476.875778	NaN	NaN	NaN	-219.237518	917.647583	-359.956116	-388.506348	928.049622	-148.878281	-392.512512	927.269836	-259.053375	-390.509430	927.659729	-203.965828	-355.550262	1206.510010	-219.160797	-162.740952	1088.732666	-213.689651	-254.342209	606.944092	-4.649645	-267.275726	449.341370	-80.860970	-292.284058	234.199646	-42.081367	-330.648346	64.443733	-114.314934	-372.741913	57.704807	-163.027756	-199.793091	42.684238	-119.072975	-282.411011	634.770508	-409.597961	-265.702576	444.667755	-328.745789	-306.201447	256.055542	-358.475952	-333.996674	60.158905	-278.544678	-377.207947	60.905594	-235.240067	-205.636185	43.518761	-271.770111
2	0.01000000	-250.040573	1349.204102	-46.008018	-252.347626	1361.401245	-390.409454	-278.215179	1422.949341	-225.167450	-190.932678	1280.260376	-221.164505	-324.313171	1014.791504	17.692364	-305.980530	1016.502197	-443.624634	-250.674080	792.459869	63.603802	-211.791718	802.753998	-476.795380	NaN	NaN	NaN	-218.395935	917.616516	-359.383545	-388.509186	928.131470	-149.021805	-392.514984	927.316528	-259.275513	-390.512085	927.723999	-204.148659	-355.546509	1206.578979	-219.318588	-162.895248	1088.762939	-213.813675	-254.162186	606.864563	-4.998016	-267.131012	449.664825	-80.838036	-292.058502	234.170547	-42.137299	-330.493866	64.448799	-114.290688	-372.794922	57.781738	-162.975876	-200.069946	42.894218	-118.825890	-282.224487	634.728882	-409.720886	-265.576385	444.694824	-328.772705	-306.121216	256.066620	-358.530548	-333.933777	60.205036	-278.583069	-377.181580	60.988338	-235.167709	-205.626175	43.489101	-271.692993
3	0.02000000	-250.231232	1349.317261	-46.292194	-252.200729	1361.510620	-390.584686	-278.293854	1422.999023	-225.488358	-191.152359	1280.071167	-222.035828	-324.417755	1014.906189	17.454996	-305.617035	1016.607849	-443.908539	-250.515488	792.668030	63.366060	-211.619179	802.983521	-477.262512	NaN	NaN	NaN	-218.563889	917.677795	-360.072510	-388.389465	928.144348	-149.253891	-392.375336	927.345093	-259.500122	-390.382401	927.744720	-204.377007	-355.689911	1206.646973	-219.612473	-162.601074	1088.865723	-213.855667	-254.037918	606.783081	-5.307978	-266.437439	449.405914	-81.162979	-291.748505	234.193161	-42.126404	-330.446228	64.482162	-114.303925	-372.778137	57.922516	-162.982880	-199.999496	42.991032	-118.860397	-282.091705	634.685669	-409.903168	-265.565674	444.653503	-328.847168	-306.111755	256.140320	-358.555420	-334.005005	60.216007	-278.587311	-377.152374	60.994495	-235.190170	-205.617874	43.544273	-271.776184
4	0.03000000	-250.682648	1349.414429	-46.520477	-252.019547	1361.569336	-390.771759	-278.384705	1422.991699	-225.892181	-191.382645	1280.079712	-221.923630	-324.521332	1014.952820	17.208313	-305.458923	1016.735840	-444.124512	-250.429749	792.680725	63.224758	-211.287605	802.995331	-477.442062	NaN	NaN	NaN	-218.393417	917.643860	-360.026825	-388.390045	928.033264	-149.465927	-392.259644	927.403320	-259.696442	-390.324844	927.718292	-204.581184	-355.758331	1206.630737	-219.858017	-162.665726	1088.876099	-213.829010	-253.921936	606.748413	-5.552651	-265.503387	449.305634	-81.678406	-291.709778	234.214249	-42.306507	-330.517944	64.483971	-114.334328	-372.701843	57.950996	-163.001038	-200.064621	42.949322	-118.858177	-281.804260	634.625305	-410.101715	-265.491394	444.674896	-328.897125	-306.098480	256.076355	-358.568390	-333.949646	60.249279	-278.583313	-377.152374	60.994495	-235.190170	-205.600006	43.506680	-271.719116
5	0.04000000	-250.940186	1349.420654	-46.795479	-251.900345	1361.567139	-390.902679	-278.542358	1423.004272	-226.241623	-191.424988	1280.614624	-221.990601	-324.622772	1015.007019	16.985695	-305.252502	1016.778259	-444.376404	-250.282867	792.816681	62.911852	-210.878159	802.911682	-477.414047	-207.466095	920.778442	-74.964249	-217.628174	917.511536	-359.612976	-388.461670	927.971680	-149.659409	-392.268921	927.379089	-259.908020	-390.365295	927.675385	-204.783714	-355.795624	1206.679321	-220.111496	-162.656372	1089.020996	-213.899292	-253.714890	606.736328	-5.640882	-265.293457	449.127228	-81.972694	-291.648743	234.174530	-42.368427	-330.512207	64.474602	-114.340424	-372.722839	57.844563	-163.035126	-199.950989	42.857452	-118.893387	-281.855804	634.543945	-409.775665	-265.366699	444.653595	-328.934845	-306.040375	256.133087	-358.598541	-333.915314	60.206223	-278.611084	-377.210358	60.994743	-235.128601	-205.626770	43.521622	-271.816132
6	0.05000000	-251.143585	1349.468506	-47.044064	-251.751556	1361.567993	-391.084656	-278.577820	1422.949585	-226.664536	-191.453278	1280.569336	-222.108719	-324.791779	1014.938171	16.747332	-304.995453	1016.841614	-444.688354	-250.780609	792.777893	62.542301	-210.670959	802.968719	-477.591614	NaN	NaN	NaN	-217.428726	917.495911	-359.714203	-388.449890	927.938965	-150.028580	-392.163086	927.277649	-260.143646	-390.306488	927.608307	-205.086113	-355.815125	1206.690430	-220.385513	-162.603134	1089.086304	-213.987640	-254.936096	605.809204	-4.885239	-265.350250	449.327850	-82.084595	-291.518524	234.098206	-42.515766	-330.431641	64.436150	-114.388367	-372.658875	57.732037	-163.045441	-199.718323	42.670914	-119.173073	-281.470764	634.395020	-410.261444	-265.251678	444.609009	-328.836945	-305.885803	255.994934	-358.712616	-333.876495	60.113396	-278.601685	-377.192261	60.950123	-235.223190	-205.606720	43.489944	-271.804108
7	0.06000000	-251.483185	1349.481934	-47.200703	-251.620590	1361.609253	-391.328644	-278.755402	1422.895752	-227.081848	-191.507004	1280.660034	-222.215897	-324.981018	1014.892700	16.454054	-304.760925	1016.824890	-444.980347	-250.561302	792.937195	62.245409	-210.541946	803.076569	-477.971573	-207.750626	920.755188	-75.095352	-217.126358	917.477356	-359.759552	-388.444763	927.698608	-150.256378	-392.013336	927.192017	-260.356598	-390.229050	927.445312	-205.306488	-356.018066	1206.674194	-220.714157	-162.556107	1089.254517	-214.025848	-254.620178	605.833008	-5.045851	-265.087189	449.233093	-82.320427	-291.393616	234.089615	-42.512558	-330.545593	64.507942	-114.336975	-372.644226	57.710224	-163.181671	-200.000549	42.820377	-118.961632	-281.147247	634.295105	-410.520355	-265.255432	444.601593	-329.044189	-305.876709	255.897156	-358.769287	-333.997864	60.088142	-278.561554	-377.253998	60.920719	-235.256042	-205.658752	43.471214	-271.720398
8	0.07000000	-251.676971	1349.503540	-47.494957	-251.484436	1361.627563	-391.501740	-278.894867	1422.814453	-227.517349	-191.373718	1280.986084	-222.247223	-325.240631	1014.848083	16.280666	-304.468231	1016.739441	-445.374146	-250.564461	793.054474	62.149286	-210.380447	803.123260	-478.201782	-207.611603	921.269714	-75.872513	-217.047699	917.367676	-359.765472	-388.461426	927.559021	-150.395203	-391.877106	927.067749	-260.605072	-390.169266	927.313385	-205.500137	-356.008942	1206.617554	-221.122635	-162.682678	1089.286621	-214.117905	-254.693237	605.682373	-5.019509	-264.852692	449.095612	-82.216087	-291.357208	234.118835	-42.740322	-330.455566	64.461220	-114.393456	-372.568451	57.543541	-163.141342	-199.983398	42.794464	-119.010651	-280.918640	634.227417	-410.727692	-265.219635	444.512634	-328.999817	-305.835358	255.803146	-358.715820	-333.948944	60.071980	-278.581024	-377.228851	60.829342	-235.239426	-205.788315	43.442879	-271.814911
9	0.08000000	-251.987579	1349.471802	-47.755878	-251.322784	1361.656494	-391.696777	-278.996277	1422.736694	-227.881943	-191.451431	1280.888306	-222.322815	-325.517548	1014.726807	15.904233	-304.270081	1016.706848	-445.669373	-250.713226	793.107788	61.764174	-210.148453	802.935577	-478.330658	-207.936340	920.903137	-75.220512	-217.032639	917.289978	-360.028870	-388.458221	927.407104	-150.684814	-391.819702	927.000122	-260.777496	-390.138962	927.203613	-205.731155	-356.064545	1206.585205	-221.534088	-162.784821	1089.269287	-214.139572	-254.566925	605.752319	-5.183231	-264.988678	449.410828	-82.189743	-291.274200	234.065826	-42.778873	-330.448914	64.458359	-114.393204	-372.602020	57.571735	-163.211304	-200.069077	42.800850	-119.015541	-280.865234	634.457458	-410.329010	-265.144348	444.405334	-329.162170	-305.758209	255.844330	-358.847229	-333.968109	60.067337	-278.598969	-377.159424	60.794357	-235.230377	-205.736862	43.376842	-271.727570
10	0.09000000	-252.107986	1349.504272	-48.142704	-251.137466	1361.701294	-391.860443	-279.054657	1422.729492	-228.237671	-191.239838	1280.573853	-222.119278	-325.693146	1014.725769	15.637809	-304.051270	1016.739075	-445.995789	-250.817131	793.430359	62.078602	-210.097313	803.091034	-478.635773	-207.925873	920.911926	-75.487282	-216.787537	917.143799	-360.090942	-388.442383	927.280457	-150.997528	-391.731262	926.867676	-261.030396	-390.086823	927.074066	-206.013962	-356.087158	1206.602905	-221.897247	-163.059845	1089.219482	-214.282990	-254.466858	605.736572	-5.289525	-264.830017	449.323608	-82.198418	-291.202698	233.953583	-42.902664	-330.391327	64.398270	-114.411537	-372.497925	57.449600	-163.253998	-200.039703	42.794514	-119.062431	-280.633301	634.446960	-410.390228	-264.902161	444.458252	-329.158447	-305.623047	255.701202	-358.894562	-333.951477	60.042583	-278.637085	-377.097961	60.746929	-235.261063	-205.787109	43.303909	-271.755951
